# xmcd CD database file
#
# Track frame offsets:
#	150
#	14860
#	28341
#	52348
#	67399
#	86080
#	103868
#	123305
#	137497
#	164332
#	185160
#
# Disc length: 2762 seconds
#
# Revision: 0
# Processed by: cddbd v1.5.2PL0 Copyright (c) Steve Scherf et al.
# Submitted via: CDex 1.70beta2
#
DISCID=b00ac80b
DTITLE=Randy Houser - They Call Me Cadillac
DYEAR=2010
DGENRE=Country
TTITLE0=Lowdown and Lonesome
TTITLE1=They Call Me Cadillac
TTITLE2=Addicted
TTITLE3=A Man Like Me
TTITLE4=Will I Always Be This Way
TTITLE5=Out Here in the Country
TTITLE6=here With Me
TTITLE7=Whistlin' Dixie 
TTITLE8=Somewhere South Of Memphis 
TTITLE9=If I Could Buy Me Some Time 
TTITLE10=Lead Me Home
EXTD=YEAR: 2010
EXTT0=
EXTT1=
EXTT2=
EXTT3=
EXTT4=
EXTT5=
EXTT6=
EXTT7=
EXTT8=
EXTT9=
EXTT10=
PLAYORDER=
